<svg width="22" height="18" viewBox="0 0 22 18" fill="none" xmlns="http://www.w3.org/2000/svg">
<path d="M6.53501 0H21C21.2652 0 21.5196 0.1054 21.7071 0.2929C21.8946 0.4804 22 0.7348 22 1V17C22 17.2652 21.8946 17.5196 21.7071 17.7071C21.5196 17.8946 21.2652 18 21 18H6.53501C6.37041 18 6.20831 17.9594 6.06321 17.8818C5.91811 17.8042 5.79431 17.6919 5.70301 17.555L0.370014 9.555C0.260414 9.3907 0.201813 9.1975 0.201813 9C0.201813 8.8025 0.260414 8.6093 0.370014 8.445L5.70301 0.445C5.79431 0.3081 5.91811 0.1958 6.06321 0.1182C6.20831 0.0406003 6.37041 0 6.53501 0ZM7.07001 2L2.40401 9L7.07001 16H20V2H7.07001ZM13 7.586L15.828 4.757L17.243 6.172L14.414 9L17.243 11.828L15.828 13.243L13 10.414L10.172 13.243L8.75701 11.828L11.586 9L8.75701 6.172L10.172 4.757L13 7.586Z" fill="#A5A5A5"/>
</svg>
