<svg width="62" height="62" viewBox="0 0 62 62" fill="none" xmlns="http://www.w3.org/2000/svg">
<rect width="62" height="62" rx="16" fill="#616161"/>
<path d="M27.164 35.088H19.724L18.308 39H15.956L22.22 22.392H24.692L30.932 39H28.58L27.164 35.088ZM26.54 33.384L23.444 24.84L20.348 33.384H26.54ZM38.9746 25.656C40.6546 25.656 42.0466 26.104 43.1506 27C44.2546 27.896 44.9346 29.096 45.1906 30.6H42.8866C42.7266 29.656 42.2866 28.92 41.5666 28.392C40.8626 27.848 39.9826 27.576 38.9266 27.576C38.1586 27.576 37.4546 27.752 36.8146 28.104C36.1906 28.456 35.6866 29 35.3026 29.736C34.9186 30.456 34.7266 31.352 34.7266 32.424C34.7266 33.496 34.9186 34.4 35.3026 35.136C35.6866 35.856 36.1906 36.392 36.8146 36.744C37.4546 37.096 38.1586 37.272 38.9266 37.272C39.9826 37.272 40.8626 37 41.5666 36.456C42.2866 35.912 42.7266 35.168 42.8866 34.224H45.1906C44.9346 35.744 44.2546 36.952 43.1506 37.848C42.0466 38.728 40.6546 39.168 38.9746 39.168C37.7106 39.168 36.5906 38.896 35.6146 38.352C34.6386 37.808 33.8706 37.032 33.3106 36.024C32.7666 35 32.4946 33.8 32.4946 32.424C32.4946 31.048 32.7666 29.848 33.3106 28.824C33.8706 27.8 34.6386 27.016 35.6146 26.472C36.5906 25.928 37.7106 25.656 38.9746 25.656Z" fill="#A5A5A5"/>
</svg>
