<svg width="62" height="40" viewBox="0 0 62 40" fill="none" xmlns="http://www.w3.org/2000/svg">
<rect width="62" height="40" rx="20" fill="#303136"/>
<path d="M18.7161 14.186C19.6161 14.186 20.3841 14.408 21.0201 14.852C21.6561 15.296 22.1001 15.884 22.3521 16.616V10.91H24.4221V24.23H22.3521V21.926C22.1001 22.658 21.6561 23.246 21.0201 23.69C20.3841 24.134 19.6161 24.356 18.7161 24.356C17.8521 24.356 17.0781 24.152 16.3941 23.744C15.7221 23.336 15.1941 22.748 14.8101 21.98C14.4261 21.212 14.2341 20.306 14.2341 19.262C14.2341 18.23 14.4261 17.33 14.8101 16.562C15.1941 15.794 15.7221 15.206 16.3941 14.798C17.0781 14.39 17.8521 14.186 18.7161 14.186ZM19.3461 15.986C18.4341 15.986 17.7021 16.28 17.1501 16.868C16.6101 17.444 16.3401 18.242 16.3401 19.262C16.3401 20.282 16.6101 21.086 17.1501 21.674C17.7021 22.25 18.4341 22.538 19.3461 22.538C19.9221 22.538 20.4381 22.406 20.8941 22.142C21.3501 21.866 21.7101 21.482 21.9741 20.99C22.2381 20.498 22.3701 19.922 22.3701 19.262C22.3701 18.614 22.2381 18.044 21.9741 17.552C21.7101 17.048 21.3501 16.664 20.8941 16.4C20.4381 16.124 19.9221 15.986 19.3461 15.986Z" fill="#29A8FF"/>
<path d="M36.1006 18.794C36.1006 19.13 36.0766 19.424 36.0286 19.676H28.3966C28.4326 20.696 28.7146 21.452 29.2426 21.944C29.7706 22.436 30.4246 22.682 31.2046 22.682C31.8886 22.682 32.4646 22.508 32.9326 22.16C33.4126 21.812 33.7066 21.35 33.8146 20.774H36.0106C35.8786 21.47 35.6026 22.088 35.1826 22.628C34.7626 23.168 34.2166 23.594 33.5446 23.906C32.8726 24.206 32.1226 24.356 31.2946 24.356C30.3346 24.356 29.4826 24.152 28.7386 23.744C28.0066 23.336 27.4306 22.748 27.0106 21.98C26.5906 21.212 26.3806 20.306 26.3806 19.262C26.3806 18.23 26.5906 17.33 27.0106 16.562C27.4306 15.794 28.0066 15.206 28.7386 14.798C29.4826 14.39 30.3346 14.186 31.2946 14.186C32.2666 14.186 33.1126 14.39 33.8326 14.798C34.5646 15.194 35.1226 15.746 35.5066 16.454C35.9026 17.15 36.1006 17.93 36.1006 18.794ZM34.0306 18.74C34.0546 18.092 33.9406 17.552 33.6886 17.12C33.4486 16.676 33.1126 16.352 32.6806 16.148C32.2606 15.932 31.7986 15.824 31.2946 15.824C30.4906 15.824 29.8186 16.07 29.2786 16.562C28.7386 17.054 28.4446 17.78 28.3966 18.74H34.0306Z" fill="#29A8FF"/>
<path d="M42.0599 14.186C42.9599 14.186 43.7279 14.408 44.3639 14.852C44.9999 15.296 45.4499 15.884 45.7139 16.616V14.312H47.7659V24.338C47.7659 25.262 47.5739 26.078 47.1899 26.786C46.8179 27.506 46.2779 28.07 45.5699 28.478C44.8619 28.886 44.0219 29.09 43.0499 29.09C41.6579 29.09 40.5299 28.76 39.6659 28.1C38.8139 27.44 38.2799 26.546 38.0639 25.418H40.0979C40.2659 26.006 40.5899 26.462 41.0699 26.786C41.5499 27.122 42.1619 27.29 42.9059 27.29C43.7219 27.29 44.3939 27.038 44.9219 26.534C45.4499 26.03 45.7139 25.298 45.7139 24.338V21.926C45.4499 22.658 44.9999 23.246 44.3639 23.69C43.7279 24.134 42.9599 24.356 42.0599 24.356C41.1959 24.356 40.4219 24.152 39.7379 23.744C39.0659 23.336 38.5379 22.748 38.1539 21.98C37.7699 21.212 37.5779 20.306 37.5779 19.262C37.5779 18.23 37.7699 17.33 38.1539 16.562C38.5379 15.794 39.0659 15.206 39.7379 14.798C40.4219 14.39 41.1959 14.186 42.0599 14.186ZM42.6899 15.986C41.7779 15.986 41.0459 16.28 40.4939 16.868C39.9539 17.444 39.6839 18.242 39.6839 19.262C39.6839 20.282 39.9539 21.086 40.4939 21.674C41.0459 22.25 41.7779 22.538 42.6899 22.538C43.2659 22.538 43.7819 22.406 44.2379 22.142C44.6939 21.866 45.0539 21.482 45.3179 20.99C45.5819 20.498 45.7139 19.922 45.7139 19.262C45.7139 18.614 45.5819 18.044 45.3179 17.552C45.0539 17.048 44.6939 16.664 44.2379 16.4C43.7819 16.124 43.2659 15.986 42.6899 15.986Z" fill="#29A8FF"/>
</svg>
