<svg width="62" height="40" viewBox="0 0 62 40" fill="none" xmlns="http://www.w3.org/2000/svg">
<rect width="62" height="40" rx="20" fill="#303136"/>
<path d="M22.7625 16.895C23.9265 16.895 24.8565 17.195 25.5525 17.795C26.2605 18.383 26.6925 19.175 26.8485 20.171H24.9045C24.8205 19.631 24.5865 19.199 24.2025 18.875C23.8305 18.539 23.3325 18.371 22.7085 18.371C22.1925 18.371 21.7905 18.497 21.5025 18.749C21.2265 18.989 21.0885 19.319 21.0885 19.739C21.0885 20.051 21.1905 20.303 21.3945 20.495C21.5985 20.687 21.8505 20.837 22.1505 20.945C22.4625 21.053 22.9005 21.173 23.4645 21.305C24.2085 21.473 24.8085 21.647 25.2645 21.827C25.7325 22.007 26.1285 22.295 26.4525 22.691C26.7885 23.075 26.9565 23.603 26.9565 24.275C26.9565 25.103 26.6385 25.775 26.0025 26.291C25.3785 26.807 24.5325 27.065 23.4645 27.065C22.2285 27.065 21.2265 26.777 20.4585 26.201C19.7025 25.625 19.2465 24.821 19.0905 23.789H21.0885C21.1485 24.329 21.3885 24.767 21.8085 25.103C22.2285 25.439 22.7805 25.607 23.4645 25.607C23.9565 25.607 24.3405 25.481 24.6165 25.229C24.9045 24.965 25.0485 24.635 25.0485 24.239C25.0485 23.891 24.9405 23.615 24.7245 23.411C24.5085 23.207 24.2385 23.051 23.9145 22.943C23.5905 22.823 23.1465 22.703 22.5825 22.583C21.8625 22.415 21.2745 22.247 20.8185 22.079C20.3745 21.911 19.9905 21.641 19.6665 21.269C19.3545 20.885 19.1985 20.369 19.1985 19.721C19.1985 18.881 19.5105 18.203 20.1345 17.687C20.7705 17.159 21.6465 16.895 22.7625 16.895Z" fill="#29A8FF"/>
<path d="M28.7263 14.141C28.7263 13.793 28.8463 13.505 29.0863 13.277C29.3263 13.049 29.6443 12.935 30.0403 12.935C30.4363 12.935 30.7543 13.049 30.9943 13.277C31.2463 13.505 31.3723 13.793 31.3723 14.141C31.3723 14.489 31.2463 14.771 30.9943 14.987C30.7543 15.203 30.4363 15.311 30.0403 15.311C29.6443 15.311 29.3263 15.203 29.0863 14.987C28.8463 14.771 28.7263 14.489 28.7263 14.141ZM31.0663 17.021V26.939H29.0143V17.021H31.0663Z" fill="#29A8FF"/>
<path d="M39.0935 16.859C40.2455 16.859 41.1695 17.231 41.8655 17.975C42.5615 18.719 42.9095 19.781 42.9095 21.161V26.939H40.8575V21.377C40.8575 20.489 40.6295 19.805 40.1735 19.325C39.7175 18.833 39.0935 18.587 38.3015 18.587C37.4855 18.587 36.8315 18.851 36.3395 19.379C35.8475 19.895 35.6015 20.657 35.6015 21.665V26.939H33.5495V17.021H35.6015V19.199C35.8655 18.455 36.3095 17.879 36.9335 17.471C37.5575 17.063 38.2775 16.859 39.0935 16.859Z" fill="#29A8FF"/>
</svg>
